<?xml version="1.0" encoding="UTF-8" standalone="no"?>
<svg width="100%" height="100%" viewBox="0 0 447 103" version="1.1" xmlns="http://www.w3.org/2000/svg" xmlnsXlink="http://www.w3.org/1999/xlink" xmlSpace="preserve" style="fill-rule:evenodd;clip-rule:evenodd;stroke-linejoin:round;stroke-miterlimit:2;">
    <g transform="matrix(1,0,0,1,-326.371,-23.7846)">
        <g transform="matrix(0.217938,0,0,0.217938,549.757,75)">
            <g transform="matrix(1,0,0,1,-1025,-235)">
                <g>
                    <path d="M385.1,215.9L128.1,215.9C137.329,162.769 183.891,123.598 237.817,123.598C270.953,123.598 302.417,138.387 323.56,163.9L368.27,163.9C342.298,116.176 292.133,86.365 237.8,86.365C156.313,86.365 89.26,153.418 89.26,234.905C89.26,234.937 89.26,234.968 89.26,235C89.261,241.386 89.669,247.766 90.48,254.1L347.48,254.1C338.255,307.236 291.691,346.412 237.761,346.412C204.621,346.412 173.153,331.619 152.01,306.1L107.31,306.1C133.286,353.813 183.444,383.617 237.77,383.617C319.257,383.617 386.31,316.563 386.31,235.077C386.31,235.058 386.31,235.039 386.31,235.02C386.313,228.627 385.909,222.241 385.1,215.9Z" style="fill:rgb(107,77,171);fill-rule:nonzero;"/>
                    <path d="M422.47,215.9C423.132,222.245 423.465,228.62 423.47,235C423.47,337.54 340.34,420.66 237.81,420.66C162.864,420.672 94.943,375.312 66.24,306.08L26.58,306.08C56.25,394.27 139.58,457.79 237.79,457.79C360.79,457.79 460.58,358.04 460.58,235C460.58,228.57 460.29,222.2 459.75,215.9L422.47,215.9Z" style="fill:rgb(107,77,171);fill-rule:nonzero;"/>
                    <path d="M52.13,235C52.13,132.46 135.25,49.34 237.79,49.34C312.728,49.339 380.638,94.697 409.34,163.92L449,163.92C419.33,75.73 336,12.21 237.79,12.21C114.75,12.21 15,112 15,235C15,241.43 15.29,247.8 15.82,254.1L53.1,254.1C52.453,247.754 52.13,241.379 52.13,235Z" style="fill:rgb(107,77,171);fill-rule:nonzero;"/>
                    <path d="M767.89,107.45L767.89,165.71L662.21,165.71L662.21,362.55L604,362.55L604,165.71L494.59,165.71L494.59,107.45L767.89,107.45Z" style="fill:rgb(102,102,102);fill-rule:nonzero;"/>
                    <path d="M802.88,183.21C802.88,162.097 810.053,144.367 824.4,130.02C839.34,114.967 856.78,107.443 876.72,107.45L1083.18,107.45L1083.18,286.79C1083.18,307.897 1076.01,325.627 1061.66,339.98C1046.73,355.027 1029.29,362.55 1009.34,362.55L876.72,362.55C856.767,362.55 839.327,355.027 824.4,339.98C810.06,325.627 802.887,307.897 802.88,286.79L802.88,183.21ZM861.15,290.64C861.15,294.14 862.667,297.473 865.7,300.64C868.5,303.213 872.167,304.497 876.7,304.49L1009.32,304.49C1013.87,304.49 1017.53,303.207 1020.32,300.64C1023.35,297.487 1024.86,294.153 1024.87,290.64L1024.87,165.71L876.67,165.54C872.117,165.54 868.45,166.823 865.67,169.39C862.63,172.543 861.113,175.877 861.12,179.39L861.15,290.64Z" style="fill:rgb(102,102,102);fill-rule:nonzero;"/>
                    <path d="M1140.05,129.5C1154.39,114.8 1171.83,107.467 1192.36,107.5L1402.5,107.5L1402.5,208.8C1402.5,229.34 1395.44,246.72 1381.33,260.94C1374.36,268.152 1365.95,273.818 1356.65,277.57L1399.17,362.57L1341.08,362.57L1298.39,282.43L1176.39,282.43L1176.39,362.57L1118.12,362.57L1118.12,181.63C1118.15,161.69 1125.46,144.313 1140.05,129.5ZM1192.36,165.71C1188.16,165.672 1184.14,167.461 1181.36,170.61C1178.25,173.419 1176.47,177.418 1176.46,181.61L1176.46,224L1329.91,224C1333.8,223.98 1337.52,222.402 1340.23,219.62C1342.9,216.953 1344.23,213.337 1344.23,208.77L1344.23,165.77L1192.36,165.71Z" style="fill:rgb(102,102,102);fill-rule:nonzero;"/>
                    <path d="M1696.26,165.71L1495.75,165.71L1495.75,205.78L1696.26,205.78L1696.26,264.22L1495.75,264.22L1495.75,290.64C1495.75,294.26 1497.27,297.593 1500.3,300.64C1502.87,303.213 1506.53,304.497 1511.3,304.49L1696.24,304.49L1696.24,362.58L1511.32,362.58C1491.49,362.58 1474.06,355.057 1459.01,340.01C1444.66,325.657 1437.49,307.927 1437.49,286.82L1437.49,107.45L1696.26,107.45L1696.26,165.71Z" style="fill:rgb(102,102,102);fill-rule:nonzero;"/>
                    <path d="M2035,107.45L1934.22,235L2035,362.55L1963.09,362.55L1883.09,261.42L1803.09,362.55L1731.18,362.55L1832,235L1731.26,107.45L1803.17,107.45L1883.17,208.58L1963.17,107.45L2035,107.45Z" style="fill:rgb(102,102,102);fill-rule:nonzero;"/>
                </g>
            </g>
        </g>
    </g>
</svg>
